<svg width="86" height="84" viewBox="0 0 86 84" fill="none" xmlns="http://www.w3.org/2000/svg">
<rect x="0.21875" width="85" height="84" rx="10" fill="#B7E1FF"/>
<path d="M57.7188 22.75H35.2188C34.2242 22.75 33.2704 23.1451 32.5671 23.8483C31.8638 24.5516 31.4688 25.5054 31.4688 26.5V49C31.4688 49.9946 31.8638 50.9484 32.5671 51.6516C33.2704 52.3549 34.2242 52.75 35.2188 52.75H57.7188C58.7133 52.75 59.6671 52.3549 60.3704 51.6516C61.0737 50.9484 61.4688 49.9946 61.4688 49V26.5C61.4688 25.5054 61.0737 24.5516 60.3704 23.8483C59.6671 23.1451 58.7133 22.75 57.7188 22.75ZM57.7188 49H35.2188V26.5H57.7188V49ZM50.2188 56.5V60.25H27.7188C26.7242 60.25 25.7704 59.8549 25.0671 59.1516C24.3638 58.4484 23.9688 57.4946 23.9688 56.5V32.125H27.7188V56.5H50.2188ZM54.9625 34.1125L52.975 32.125L43.825 41.275L39.85 37.3L37.8625 39.2875L43.825 45.25L54.9625 34.1125Z" fill="#053266"/>
</svg>
