<svg width="24" height="24" viewBox="0 0 24 24" fill="none" xmlns="http://www.w3.org/2000/svg">
<path d="M14.5753 9.36359H9.48438V14.4545H14.5753V9.36359Z" stroke="#0A65CC" stroke-width="1.45455" stroke-linecap="round" stroke-linejoin="round"/>
<path d="M18.575 4.63635H5.48411C5.08245 4.63635 4.75684 4.96196 4.75684 5.36363V18.4545C4.75684 18.8562 5.08245 19.1818 5.48411 19.1818H18.575C18.9767 19.1818 19.3023 18.8562 19.3023 18.4545V5.36363C19.3023 4.96196 18.9767 4.63635 18.575 4.63635Z" stroke="#0A65CC" stroke-width="1.45455" stroke-linecap="round" stroke-linejoin="round"/>
<path d="M19.3027 9.72723H21.4846" stroke="#0A65CC" stroke-width="1.45455" stroke-linecap="round" stroke-linejoin="round"/>
<path d="M19.3027 14.0909H21.4846" stroke="#0A65CC" stroke-width="1.45455" stroke-linecap="round" stroke-linejoin="round"/>
<path d="M2.5752 9.72723H4.75701" stroke="#0A65CC" stroke-width="1.45455" stroke-linecap="round" stroke-linejoin="round"/>
<path d="M2.5752 14.0909H4.75701" stroke="#0A65CC" stroke-width="1.45455" stroke-linecap="round" stroke-linejoin="round"/>
<path d="M14.2119 19.1818V21.3636" stroke="#0A65CC" stroke-width="1.45455" stroke-linecap="round" stroke-linejoin="round"/>
<path d="M9.84766 19.1818V21.3636" stroke="#0A65CC" stroke-width="1.45455" stroke-linecap="round" stroke-linejoin="round"/>
<path d="M14.2119 2.45453V4.63635" stroke="#0A65CC" stroke-width="1.45455" stroke-linecap="round" stroke-linejoin="round"/>
<path d="M9.84766 2.45453V4.63635" stroke="#0A65CC" stroke-width="1.45455" stroke-linecap="round" stroke-linejoin="round"/>
</svg>
