<svg width="86" height="84" viewBox="0 0 86 84" fill="none" xmlns="http://www.w3.org/2000/svg">
<rect x="0.21875" width="85" height="84" rx="10" fill="#AAE6D6"/>
<path d="M42.7187 26.5C44.7079 26.5 46.6155 27.2902 48.022 28.6967C49.4286 30.1032 50.2187 32.0109 50.2187 34C50.2187 35.9891 49.4286 37.8968 48.022 39.3033C46.6155 40.7098 44.7079 41.5 42.7187 41.5C40.7296 41.5 38.822 40.7098 37.4154 39.3033C36.0089 37.8968 35.2187 35.9891 35.2187 34C35.2187 32.0109 36.0089 30.1032 37.4154 28.6967C38.822 27.2902 40.7296 26.5 42.7187 26.5ZM42.7187 45.25C51.0062 45.25 57.7187 48.6063 57.7187 52.75V56.5H27.7188V52.75C27.7188 48.6063 34.4312 45.25 42.7187 45.25Z" fill="#48AB90"/>
</svg>
