<svg width="86" height="84" viewBox="0 0 86 84" fill="none" xmlns="http://www.w3.org/2000/svg">
<rect x="0.21875" width="85" height="84" rx="10" fill="#FFE7BC"/>
<path d="M47.2988 44.9717C48.804 45.4919 50.1598 46.2168 51.3662 47.1465C52.5726 48.0762 53.6019 49.1608 54.4541 50.4004C55.3063 51.64 55.9593 52.9847 56.4131 54.4346C56.8669 55.8844 57.0938 57.4062 57.0938 59H54.9688C54.9688 57.1849 54.6478 55.5026 54.0059 53.9531C53.3639 52.4036 52.4674 51.0534 51.3164 49.9023C50.1654 48.7513 48.8206 47.8604 47.2822 47.2295C45.7438 46.5986 44.056 46.2721 42.2188 46.25C41.0345 46.25 39.8945 46.3994 38.7988 46.6982C37.7031 46.9971 36.6849 47.4176 35.7441 47.96C34.8034 48.5023 33.9456 49.1608 33.1709 49.9355C32.3962 50.7103 31.7376 51.568 31.1953 52.5088C30.653 53.4495 30.2269 54.4733 29.917 55.5801C29.6071 56.6868 29.4577 57.8268 29.4688 59H27.3438C27.3438 57.4062 27.5762 55.8844 28.041 54.4346C28.5059 52.9847 29.1644 51.6455 30.0166 50.417C30.8688 49.1885 31.8981 48.1149 33.1045 47.1963C34.3109 46.2777 35.6667 45.5417 37.1719 44.9883C36.3086 44.5234 35.5339 43.959 34.8477 43.2949C34.1615 42.6309 33.5804 41.8949 33.1045 41.0869C32.6286 40.279 32.2578 39.4102 31.9922 38.4805C31.7266 37.5508 31.5938 36.599 31.5938 35.625C31.5938 34.153 31.8704 32.7751 32.4238 31.4912C32.9772 30.2074 33.7354 29.0785 34.6982 28.1045C35.6611 27.1305 36.7845 26.3724 38.0684 25.8301C39.3522 25.2878 40.7357 25.0111 42.2188 25C43.6908 25 45.0687 25.2767 46.3525 25.8301C47.6364 26.3835 48.7653 27.1416 49.7393 28.1045C50.7132 29.0674 51.4714 30.1908 52.0137 31.4746C52.556 32.7585 52.8327 34.1419 52.8438 35.625C52.8438 36.599 52.7165 37.5452 52.4619 38.4639C52.2074 39.3825 51.8366 40.2458 51.3496 41.0537C50.8626 41.8617 50.2816 42.5977 49.6064 43.2617C48.9313 43.9258 48.1621 44.4958 47.2988 44.9717ZM33.7188 35.625C33.7188 36.7982 33.9401 37.8994 34.3828 38.9287C34.8255 39.958 35.4342 40.8545 36.209 41.6182C36.9837 42.3818 37.8857 42.9906 38.915 43.4443C39.9443 43.8981 41.0456 44.125 42.2188 44.125C43.3919 44.125 44.4932 43.9036 45.5225 43.4609C46.5518 43.0182 47.4482 42.4095 48.2119 41.6348C48.9756 40.86 49.5843 39.958 50.0381 38.9287C50.4919 37.8994 50.7188 36.7982 50.7188 35.625C50.7188 34.4518 50.4974 33.3506 50.0547 32.3213C49.612 31.292 49.0033 30.3955 48.2285 29.6318C47.4538 28.8682 46.5518 28.2594 45.5225 27.8057C44.4932 27.3519 43.3919 27.125 42.2188 27.125C41.0456 27.125 39.9443 27.3464 38.915 27.7891C37.8857 28.2318 36.9893 28.8405 36.2256 29.6152C35.4619 30.39 34.8532 31.292 34.3994 32.3213C33.9456 33.3506 33.7188 34.4518 33.7188 35.625Z" fill="#FFB836"/>
</svg>
