<svg width="38" height="38" viewBox="0 0 38 38" fill="none" xmlns="http://www.w3.org/2000/svg">
<circle cx="19" cy="19" r="19" fill="#F8F8FD"/>
<path d="M32 18.5764C32 11.6307 26.4035 6 19.5 6C12.5965 6 7 11.6307 7 18.5764C7 24.8536 11.5711 30.0566 17.5469 31V22.2118H14.373V18.5764H17.5469V15.8057C17.5469 12.6537 19.4131 10.9127 22.2684 10.9127C23.6359 10.9127 25.0664 11.1583 25.0664 11.1583V14.2533H23.4902C21.9374 14.2533 21.4531 15.2227 21.4531 16.2173V18.5764H24.9199L24.3657 22.2118H21.4531V31C27.4289 30.0566 32 24.8537 32 18.5764Z" fill="#1877F2"/>
</svg>
