<svg width="50" height="50" viewBox="0 0 50 50" fill="none" xmlns="http://www.w3.org/2000/svg">
<rect width="50" height="50" rx="25" fill="#0A65CC"/>
<g clip-path="url(#clip0_1660_52998)">
<g clip-path="url(#clip1_1660_52998)">
<path d="M33.3583 19.8203L34.4736 17.4729L36.9178 16.4017L34.4736 15.3306L33.3583 12.9832L32.243 15.3306L29.7988 16.4017L32.243 17.4729L33.3583 19.8203Z" fill="white"/>
<path d="M19.7148 19.8203L20.8301 17.4729L23.2744 16.4017L20.8301 15.3306L19.7148 12.9832L18.5995 15.3306L16.1553 16.4017L18.5995 17.4729L19.7148 19.8203Z" fill="white"/>
<path d="M33.3583 26.0879L32.243 28.4354L29.7988 29.5065L32.243 30.5777L33.3583 32.925L34.4736 30.5777L36.9178 29.5065L34.4736 28.4354L33.3583 26.0879Z" fill="white"/>
<path d="M30.643 22.2361L27.2852 19.0112C27.0479 18.7947 26.7512 18.6808 26.4428 18.6808C26.1343 18.6808 25.8376 18.7947 25.6004 19.0112L12.3471 31.7398C11.8843 32.1842 11.8843 32.9021 12.3471 33.3466L15.7049 36.5715C15.9422 36.7993 16.2388 36.9133 16.5473 36.9133C16.8558 36.9133 17.1524 36.7993 17.3897 36.5828L30.643 23.8542C31.1058 23.4098 31.1058 22.6805 30.643 22.2361ZM26.4428 21.4385L28.1158 23.0452L26.7275 24.3784L25.0546 22.7717L26.4428 21.4385ZM16.5473 34.167L14.8743 32.5603L23.3816 24.3784L25.0546 25.9851L16.5473 34.167Z" fill="white"/>
</g>
</g>
<defs>
<clipPath id="clip0_1660_52998">
<rect width="26" height="25" fill="white" transform="translate(12 12)"/>
</clipPath>
<clipPath id="clip1_1660_52998">
<rect width="26" height="24.9167" fill="white" transform="translate(12 12.0416)"/>
</clipPath>
</defs>
</svg>
