<svg width="38" height="38" viewBox="0 0 38 38" fill="none" xmlns="http://www.w3.org/2000/svg">
<circle cx="19" cy="19" r="19" fill="#F8F8FD"/>
<path d="M19.5 7C12.5938 7 7 12.5058 7 19.3035C7 24.7478 10.5781 29.3463 15.5469 30.9765C16.1719 31.0842 16.4062 30.715 16.4062 30.3921C16.4062 30.0999 16.3906 29.131 16.3906 28.1005C13.25 28.6696 12.4375 27.347 12.1875 26.6549C12.0469 26.3012 11.4375 25.2092 10.9062 24.917C10.4688 24.6863 9.84375 24.1173 10.8906 24.1019C11.875 24.0865 12.5781 24.9939 12.8125 25.363C13.9375 27.2239 15.7344 26.701 16.4531 26.3781C16.5625 25.5783 16.8906 25.04 17.25 24.7325C14.4688 24.4249 11.5625 23.3637 11.5625 18.6576C11.5625 17.3196 12.0469 16.2123 12.8438 15.351C12.7188 15.0434 12.2812 13.7823 12.9688 12.0906C12.9688 12.0906 14.0156 11.7676 16.4062 13.3517C17.4062 13.0749 18.4688 12.9365 19.5313 12.9365C20.5938 12.9365 21.6563 13.0749 22.6563 13.3517C25.0469 11.7522 26.0938 12.0906 26.0938 12.0906C26.7812 13.7823 26.3438 15.0434 26.2188 15.351C27.0156 16.2123 27.5 17.3042 27.5 18.6576C27.5 23.3791 24.5781 24.4249 21.7969 24.7325C22.25 25.1169 22.6406 25.8552 22.6406 27.0086C22.6406 28.6542 22.625 29.9768 22.625 30.3921C22.625 30.715 22.8594 31.0995 23.4844 30.9765C25.9662 30.1525 28.1229 28.583 29.6506 26.4888C31.1783 24.3947 32 21.8816 32 19.3035C32 12.5058 26.4062 7 19.5 7Z" fill="black"/>
</svg>
