<svg width="96" height="96" viewBox="0 0 96 96" fill="none" xmlns="http://www.w3.org/2000/svg">
<mask id="mask0_2355_76085" style="mask-type:luminance" maskUnits="userSpaceOnUse" x="0" y="0" width="96" height="96">
<path d="M0 0H96V96H0V0Z" fill="white"/>
</mask>
<g mask="url(#mask0_2355_76085)">
<path d="M48.6179 20.083C64.7624 20.083 77.8705 33.1911 77.8705 49.3356C77.8705 65.4802 64.7624 78.5883 48.6179 78.5883C32.4733 78.5883 19.3652 65.4802 19.3652 49.3356C19.3652 33.1911 32.4733 20.083 48.6179 20.083Z" fill="#3FBE57"/>
<path d="M48.6179 20.083C64.7624 20.083 77.8705 33.1911 77.8705 49.3356C77.8705 65.4802 64.7624 78.5883 48.6179 78.5883C32.4733 78.5883 19.3652 65.4802 19.3652 49.3356C19.3652 33.1911 32.4733 20.083 48.6179 20.083Z" stroke="#00A7FF" stroke-width="0.114398"/>
</g>
<path d="M30.5944 65.7724C31.8289 67.1855 31.684 69.3353 30.2708 70.5698C28.8577 71.8044 26.708 71.6594 25.4734 70.2463C24.2388 68.8332 24.3838 66.6834 25.7969 65.4489C27.2101 64.2143 29.3598 64.3593 30.5944 65.7724Z" fill="white"/>
<path d="M30.5944 65.7724C31.8289 67.1855 31.684 69.3353 30.2708 70.5698C28.8577 71.8044 26.708 71.6594 25.4734 70.2463C24.2388 68.8332 24.3838 66.6834 25.7969 65.4489C27.2101 64.2143 29.3598 64.3593 30.5944 65.7724Z" stroke="#00A7FF" stroke-width="0.0763889"/>
<path d="M66.9331 33.1545C65.7417 31.7047 65.9515 29.5604 67.4012 28.369C68.8509 27.1776 70.9953 27.3873 72.1867 28.8371C73.3781 30.2868 73.1683 32.4312 71.7186 33.6226C70.2689 34.8139 68.1245 34.6042 66.9331 33.1545Z" fill="white"/>
<path d="M66.9331 33.1545C65.7417 31.7047 65.9515 29.5604 67.4012 28.369C68.8509 27.1776 70.9953 27.3873 72.1867 28.8371C73.3781 30.2868 73.1683 32.4312 71.7186 33.6226C70.2689 34.8139 68.1245 34.6042 66.9331 33.1545Z" stroke="#00A7FF" stroke-width="0.0763889"/>
<path d="M34.3477 48.3848L44.5476 59.1709L63.7692 42.3111" stroke="white" stroke-width="4.48653" stroke-linecap="round" stroke-linejoin="round"/>
<path d="M10.1402 48.5566C11.1856 48.5566 12.0343 49.4054 12.0343 50.4508C12.0343 51.4961 11.1856 52.3449 10.1402 52.3449C9.09485 52.3449 8.24609 51.4961 8.24609 50.4508C8.24609 49.4054 9.09485 48.5566 10.1402 48.5566Z" fill="#EFD076"/>
<path d="M10.1402 48.5566C11.1856 48.5566 12.0343 49.4054 12.0343 50.4508C12.0343 51.4961 11.1856 52.3449 10.1402 52.3449C9.09485 52.3449 8.24609 51.4961 8.24609 50.4508C8.24609 49.4054 9.09485 48.5566 10.1402 48.5566Z" stroke="#00A7FF" stroke-width="0.0425557"/>
<path d="M47.6539 11.0459C48.6992 11.0459 49.548 11.8947 49.548 12.94C49.548 13.9854 48.6992 14.8341 47.6539 14.8341C46.6085 14.8341 45.7598 13.9854 45.7598 12.94C45.7598 11.8947 46.6085 11.0459 47.6539 11.0459Z" fill="#01A888"/>
<path d="M47.6539 11.0459C48.6992 11.0459 49.548 11.8947 49.548 12.94C49.548 13.9854 48.6992 14.8341 47.6539 14.8341C46.6085 14.8341 45.7598 13.9854 45.7598 12.94C45.7598 11.8947 46.6085 11.0459 47.6539 11.0459Z" stroke="#00A7FF" stroke-width="0.0425557"/>
<path d="M85.6969 48.9131C86.7422 48.9131 87.591 49.7618 87.591 50.8072C87.591 51.8526 86.7422 52.7013 85.6969 52.7013C84.6515 52.7013 83.8027 51.8526 83.8027 50.8072C83.8027 49.7618 84.6515 48.9131 85.6969 48.9131Z" fill="#F6743C"/>
<path d="M85.6969 48.9131C86.7422 48.9131 87.591 49.7618 87.591 50.8072C87.591 51.8526 86.7422 52.7013 85.6969 52.7013C84.6515 52.7013 83.8027 51.8526 83.8027 50.8072C83.8027 49.7618 84.6515 48.9131 85.6969 48.9131Z" stroke="#00A7FF" stroke-width="0.0425557"/>
<path d="M48.0113 85.1797C49.0567 85.1797 49.9054 86.0284 49.9054 87.0738C49.9054 88.1192 49.0567 88.9679 48.0113 88.9679C46.9659 88.9679 46.1172 88.1192 46.1172 87.0738C46.1172 86.0284 46.9659 85.1797 48.0113 85.1797Z" fill="#F76057"/>
<path d="M48.0113 85.1797C49.0567 85.1797 49.9054 86.0284 49.9054 87.0738C49.9054 88.1192 49.0567 88.9679 48.0113 88.9679C46.9659 88.9679 46.1172 88.1192 46.1172 87.0738C46.1172 86.0284 46.9659 85.1797 48.0113 85.1797Z" stroke="#00A7FF" stroke-width="0.0425557"/>
</svg>
