<svg width="24" height="24" viewBox="0 0 24 24" fill="none" xmlns="http://www.w3.org/2000/svg">
<path d="M22.2772 11.5866L20.0302 12.7101L17.1211 7.13899L19.391 6.00403C19.5616 5.91876 19.7588 5.90387 19.9402 5.96257C20.1216 6.02128 20.2727 6.14887 20.3609 6.31789L22.5967 10.5994C22.6414 10.685 22.6686 10.7787 22.6767 10.8749C22.6848 10.9712 22.6737 11.0681 22.6439 11.16C22.6142 11.2519 22.5665 11.3369 22.5035 11.4102C22.4405 11.4834 22.3636 11.5434 22.2772 11.5866V11.5866Z" stroke="#7C8493" stroke-width="1.45455" stroke-linecap="round" stroke-linejoin="round"/>
<path d="M4.02995 12.6126L1.78289 11.489C1.6965 11.4458 1.61958 11.3859 1.55662 11.3126C1.49366 11.2394 1.44592 11.1543 1.41619 11.0624C1.38645 10.9706 1.37532 10.8737 1.38343 10.7774C1.39155 10.6812 1.41875 10.5875 1.46346 10.5019L3.69918 6.22036C3.78743 6.05134 3.93853 5.92374 4.11994 5.86504C4.30135 5.80634 4.49856 5.82122 4.6691 5.90649L6.93904 7.04146L4.02995 12.6126Z" stroke="#7C8493" stroke-width="1.45455" stroke-linecap="round" stroke-linejoin="round"/>
<path d="M20.0303 12.71L18.5757 14.4116L15.2305 17.7568C15.1417 17.8456 15.0314 17.9099 14.9104 17.9434C14.7894 17.977 14.6617 17.9786 14.5399 17.9481L9.27107 16.6309C9.17225 16.6062 9.07972 16.561 8.99947 16.4983L4.03027 12.6125" stroke="#7C8493" stroke-width="1.45455" stroke-linecap="round" stroke-linejoin="round"/>
<path d="M18.575 14.4116L14.575 11.5026L13.4113 12.3753C12.9078 12.7529 12.2953 12.9571 11.6659 12.9571C11.0364 12.9571 10.424 12.7529 9.92042 12.3753L9.42763 12.0057C9.34427 11.9432 9.27532 11.8635 9.22544 11.772C9.17557 11.6805 9.14593 11.5794 9.13855 11.4754C9.13116 11.3715 9.1462 11.2672 9.18263 11.1696C9.21907 11.0719 9.27605 10.9833 9.34973 10.9096L12.9074 7.35193C12.9749 7.2844 13.0551 7.23083 13.1434 7.19428C13.2316 7.15773 13.3262 7.13892 13.4217 7.13892H17.1204" stroke="#7C8493" stroke-width="1.45455" stroke-linecap="round" stroke-linejoin="round"/>
<path d="M6.99121 7.04143L11.6567 5.68129C11.8233 5.6327 12.0019 5.64533 12.16 5.7169L15.3026 7.13886" stroke="#7C8493" stroke-width="1.45455" stroke-linecap="round" stroke-linejoin="round"/>
<path d="M10.5753 19.8662L7.83533 19.1812C7.72415 19.1534 7.62111 19.0997 7.53461 19.0246L5.48438 17.2424" stroke="#7C8493" stroke-width="1.45455" stroke-linecap="round" stroke-linejoin="round"/>
</svg>
