<svg width="24" height="24" viewBox="0 0 24 24" fill="none" xmlns="http://www.w3.org/2000/svg">
<path d="M3.30176 4.6666V17.2727C3.30176 17.3856 3.32805 17.4969 3.37854 17.5979C3.42903 17.6989 3.50234 17.7867 3.59267 17.8545C3.68299 17.9222 3.78785 17.968 3.89893 17.9882C4.01002 18.0084 4.12428 18.0025 4.23267 17.9708L20.2327 13.3042C20.3837 13.2601 20.5164 13.1682 20.6108 13.0424C20.7053 12.9165 20.7563 12.7634 20.7563 12.606V9.33327C20.7563 9.17591 20.7053 9.02279 20.6108 8.89691C20.5164 8.77102 20.3837 8.67915 20.2327 8.63509L4.23267 3.96842C4.12428 3.93681 4.01002 3.93086 3.89893 3.95106C3.78785 3.97126 3.68299 4.01704 3.59267 4.08479C3.50234 4.15253 3.42903 4.24037 3.37854 4.34136C3.32805 4.44234 3.30176 4.5537 3.30176 4.6666V4.6666Z" stroke="#A8ADB7" stroke-width="1.45455" stroke-linecap="round" stroke-linejoin="round"/>
<path d="M17.1205 14.2119V17.515C17.1205 17.7079 17.0438 17.8929 16.9075 18.0293C16.7711 18.1657 16.5861 18.2423 16.3932 18.2423H13.4841C13.2912 18.2423 13.1062 18.1657 12.9698 18.0293C12.8335 17.8929 12.7568 17.7079 12.7568 17.515V6.45459" stroke="#A8ADB7" stroke-width="1.45455" stroke-linecap="round" stroke-linejoin="round"/>
</svg>
