<svg width="24" height="24" viewBox="0 0 24 24" fill="none" xmlns="http://www.w3.org/2000/svg">
<path d="M0.75 11.625C0.75 16.384 3.9 20.4164 8.25 21.9058V1.34412C3.9 2.83357 0.75 6.86599 0.75 11.625ZM23.25 11.625C23.25 6.86599 20.1375 2.83357 15.75 1.34412V21.9058C20.1375 20.4164 23.25 16.384 23.25 11.625Z" fill="#83BF4F"/>
<path d="M8.25 21.9059C9.4125 22.3055 10.6875 22.5234 12 22.5234C13.3125 22.5234 14.5875 22.3055 15.75 21.9059V1.34414C14.5875 0.944531 13.3125 0.726562 12 0.726562C10.6875 0.726562 9.4125 0.944531 8.25 1.34414V21.9059Z" fill="#F9F9F9"/>
</svg>
