<svg width="24" height="24" viewBox="0 0 24 24" fill="none" xmlns="http://www.w3.org/2000/svg">
<path d="M20.7573 16.6957V7.72825C20.7573 7.5992 20.7229 7.47248 20.6578 7.36109C20.5926 7.2497 20.499 7.15764 20.3866 7.09438L12.3866 2.59438C12.2777 2.53314 12.1549 2.50098 12.03 2.50098C11.9051 2.50098 11.7823 2.53314 11.6735 2.59438L3.67345 7.09438C3.56098 7.15764 3.46737 7.2497 3.40222 7.36109C3.33707 7.47248 3.30273 7.5992 3.30273 7.72825V16.6957C3.30273 16.8248 3.33707 16.9515 3.40222 17.0629C3.46737 17.1743 3.56098 17.2664 3.67345 17.3296L11.6735 21.8296C11.7823 21.8909 11.9051 21.923 12.03 21.923C12.1549 21.923 12.2777 21.8909 12.3866 21.8296L20.3866 17.3296C20.499 17.2664 20.5926 17.1743 20.6578 17.0629C20.7229 16.9515 20.7573 16.8248 20.7573 16.6957Z" stroke="#A8ADB7" stroke-width="1.45455" stroke-linecap="round" stroke-linejoin="round"/>
<path d="M16.4862 14.4403V9.71303L7.66602 4.84839" stroke="#A8ADB7" stroke-width="1.45455" stroke-linecap="round" stroke-linejoin="round"/>
<path d="M20.6569 7.35992L12.1161 12.212L3.40332 7.35901" stroke="#A8ADB7" stroke-width="1.45455" stroke-linecap="round" stroke-linejoin="round"/>
<path d="M12.1166 12.212L12.0312 21.9231" stroke="#A8ADB7" stroke-width="1.45455" stroke-linecap="round" stroke-linejoin="round"/>
</svg>
