<svg width="86" height="84" viewBox="0 0 86 84" fill="none" xmlns="http://www.w3.org/2000/svg">
<rect x="0.21875" width="85" height="84" rx="10" fill="#FFCCC5"/>
<path d="M67.2188 42C67.2188 55.8071 56.0259 67 42.2188 67C28.4116 67 17.2188 55.8071 17.2188 42C17.2188 28.1929 28.4116 17 42.2188 17C56.0259 17 67.2188 28.1929 67.2188 42ZM22.2188 42C22.2188 53.0457 31.1731 62 42.2188 62C53.2644 62 62.2188 53.0457 62.2188 42C62.2188 30.9543 53.2644 22 42.2188 22C31.1731 22 22.2188 30.9543 22.2188 42Z" fill="#ADCCEE"/>
<path d="M19.7188 42C18.338 42 17.2058 43.1221 17.3436 44.4959C17.7513 48.5586 19.1495 52.4732 21.432 55.8893C24.179 60.0005 28.0835 63.2048 32.6517 65.097C37.2198 66.9892 42.2465 67.4843 47.096 66.5196C51.9455 65.555 56.4001 63.174 59.8964 59.6777C63.3927 56.1814 65.7738 51.7268 66.7384 46.8773C67.703 42.0277 67.2079 37.0011 65.3157 32.4329C63.4235 27.8648 60.2192 23.9603 56.108 21.2133C52.692 18.9308 48.7773 17.5325 44.7147 17.1249C43.3409 16.987 42.2188 18.1193 42.2188 19.5C42.2188 20.8807 43.3424 21.9839 44.7123 22.156C47.7844 22.5421 50.7369 23.6378 53.3302 25.3706C56.6191 27.5682 59.1826 30.6918 60.6963 34.3463C62.2101 38.0009 62.6062 42.0222 61.8345 45.9018C61.0628 49.7814 59.1579 53.3451 56.3609 56.1421C53.5638 58.9392 50.0002 60.844 46.1206 61.6157C42.2409 62.3874 38.2196 61.9913 34.5651 60.4776C30.9106 58.9638 27.787 56.4004 25.5894 53.1114C23.8566 50.5181 22.7608 47.5656 22.3748 44.4936C22.2026 43.1236 21.0995 42 19.7188 42Z" fill="#0854AA"/>
</svg>
