<svg width="96" height="94" viewBox="0 0 96 94" fill="none" xmlns="http://www.w3.org/2000/svg">
<rect width="96" height="94" rx="10" fill="#4AB3FF"/>
<path d="M67.2712 48.5625C68.1462 48.5625 68.8337 47.8541 68.8337 47C68.8337 46.125 68.1462 45.4375 67.2712 45.4375H64.667V40.8541H67.2712C68.1462 40.8541 68.8337 40.1666 68.8337 39.2916C68.8337 38.4375 68.1462 37.7291 67.2712 37.7291H64.1878C63.1878 34.4166 60.5837 31.8125 57.2712 30.8125V27.7291C57.2712 26.875 56.5628 26.1666 55.7087 26.1666C54.8545 26.1666 54.1462 26.875 54.1462 27.7291V30.3333H49.5628V27.7291C49.5628 26.875 48.8545 26.1666 48.0003 26.1666C47.1462 26.1666 46.4378 26.875 46.4378 27.7291V30.3333H41.8753V27.7291C41.8753 26.875 41.167 26.1666 40.3128 26.1666C39.4378 26.1666 38.7503 26.875 38.7503 27.7291V30.8125C35.417 31.8125 32.8128 34.4166 31.8128 37.7291H28.7295C27.8753 37.7291 27.167 38.4375 27.167 39.2916C27.167 40.1666 27.8753 40.8541 28.7295 40.8541H31.3337V45.4375H28.7295C27.8753 45.4375 27.167 46.125 27.167 47C27.167 47.8541 27.8753 48.5625 28.7295 48.5625H31.3337V53.1458H28.7295C27.8753 53.1458 27.167 53.8333 27.167 54.7083C27.167 55.5625 27.8753 56.2708 28.7295 56.2708H31.8128C32.792 59.5833 35.417 62.1875 38.7503 63.1875V66.2708C38.7503 67.125 39.4378 67.8333 40.3128 67.8333C41.167 67.8333 41.8753 67.125 41.8753 66.2708V63.6666H46.4587V66.2708C46.4587 67.125 47.1462 67.8333 48.0212 67.8333C48.8753 67.8333 49.5837 67.125 49.5837 66.2708V63.6666H54.1462V66.2708C54.1462 67.125 54.8545 67.8333 55.7087 67.8333C56.5628 67.8333 57.2712 67.125 57.2712 66.2708V63.1875C60.5837 62.1875 63.1878 59.5833 64.1878 56.2708H67.2712C68.1462 56.2708 68.8337 55.5625 68.8337 54.7083C68.8337 53.8333 68.1462 53.1458 67.2712 53.1458H64.667V48.5625H67.2712ZM58.9587 51.7083C58.9587 55.1458 56.1462 57.9583 52.7087 57.9583H43.292C39.8545 57.9583 37.042 55.1458 37.042 51.7083V42.2916C37.042 38.8541 39.8545 36.0416 43.292 36.0416H52.7087C56.1462 36.0416 58.9587 38.8541 58.9587 42.2916V51.7083Z" fill="#DDF5EF"/>
<path d="M43.8747 55.8542H52.1455C54.7497 55.8542 56.8747 53.75 56.8747 51.125V42.8542C56.8747 40.25 54.7705 38.125 52.1455 38.125H43.8747C41.2705 38.125 39.1455 40.2292 39.1455 42.8542V51.125C39.1455 53.75 41.2497 55.8542 43.8747 55.8542Z" fill="#DDF5EF"/>
</svg>
