<svg width="96" height="94" viewBox="0 0 96 94" fill="none" xmlns="http://www.w3.org/2000/svg">
<rect width="96" height="94" rx="10" fill="#CEE0F5"/>
<path d="M28 25V31.7027L23 39.036V39.6667C23 42.6825 25.2583 45.1667 28 45.1667V69H54.6667V52.5H58V69H68V45.1667C70.7417 45.1667 73 42.6825 73 39.6667V39.036L68 31.7027V25H28ZM31.3333 28.6667H64.6667V30.5H31.3333V28.6667ZM30.5 34.1667H65.5L69.51 40.0682C69.3267 40.862 68.7817 41.5 68 41.5C67.075 41.5 66.3333 40.6842 66.3333 39.6667H63C63 40.6842 62.2583 41.5 61.3333 41.5C60.4083 41.5 59.6667 40.6842 59.6667 39.6667H56.3333C56.3333 40.6842 55.5917 41.5 54.6667 41.5C53.7417 41.5 53 40.6842 53 39.6667H49.6667C49.6667 40.6842 48.925 41.5 48 41.5C47.075 41.5 46.3333 40.6842 46.3333 39.6667H43C43 40.6842 42.2583 41.5 41.3333 41.5C40.4083 41.5 39.6667 40.6842 39.6667 39.6667H36.3333C36.3333 40.6842 35.5917 41.5 34.6667 41.5C33.7417 41.5 33 40.6842 33 39.6667H29.6667C29.6667 40.6842 28.925 41.5 28 41.5C27.2183 41.5 26.6717 40.862 26.49 40.0682L30.5 34.1667ZM31.3333 43.7348C32.2183 44.6148 33.39 45.1667 34.6667 45.1667C35.9433 45.1667 37.115 44.6167 38 43.7348C38.885 44.6148 40.0567 45.1667 41.3333 45.1667C42.61 45.1667 43.7817 44.6167 44.6667 43.7348C45.5517 44.6148 46.7233 45.1667 48 45.1667C49.2767 45.1667 50.4483 44.6167 51.3333 43.7348C52.2183 44.6148 53.39 45.1667 54.6667 45.1667C55.9433 45.1667 57.115 44.6167 58 43.7348C58.885 44.6148 60.0567 45.1667 61.3333 45.1667C62.61 45.1667 63.7817 44.6167 64.6667 43.7348V65.3333H61.3333V48.8333H51.3333V65.3333H31.3333V43.7348ZM34.6667 48.8333V61.6667H48V48.8333H34.6667ZM38 52.5H44.6667V58H38V52.5Z" fill="#074388"/>
</svg>
